<svg width="61" height="60" viewBox="0 0 61 60" fill="none" xmlns="http://www.w3.org/2000/svg">
<rect x="0.5" width="60" height="60" rx="5" fill="#330000"/>
<path d="M29.0136 38.1294H19.2473L17.252 44.299C17.1995 44.5352 16.9895 44.6928 16.7532 44.6665H11.8176C11.5288 44.6665 11.45 44.509 11.5288 44.1939L19.9824 19.8569C20.0612 19.5944 20.1399 19.3056 20.2449 18.9905C20.3499 18.4392 20.4025 17.8616 20.4025 17.2841C20.3762 17.1528 20.4812 17.0215 20.6125 16.9953H27.4122C27.6222 16.9953 27.7272 17.074 27.7534 17.2053L37.336 44.2464C37.4148 44.5352 37.336 44.6665 37.0735 44.6665H31.5865C31.4027 44.6928 31.2189 44.5615 31.1664 44.3777L29.0136 38.1294ZM20.77 32.7999H27.4384C27.2809 32.2486 27.0709 31.5922 26.8346 30.9096C26.5983 30.2008 26.362 29.4394 26.1257 28.6518C25.8632 27.838 25.6269 27.0504 25.3644 26.2365C25.1018 25.4227 24.8656 24.6613 24.6555 23.9C24.4455 23.1649 24.2617 22.4823 24.078 21.8522H24.0254C23.7892 22.9811 23.5004 24.11 23.1328 25.2389C22.739 26.4991 22.3452 27.8117 21.9252 29.1244C21.5576 30.4633 21.1638 31.6973 20.77 32.7999ZM43.1905 21.5896C42.3242 21.6159 41.4841 21.2746 40.854 20.6708C40.2501 20.0144 39.9351 19.1481 39.9613 18.2554C39.9351 17.3628 40.2764 16.5227 40.9065 15.9189C41.5366 15.315 42.3767 15 43.243 15C44.2669 15 45.0545 15.315 45.6321 15.9189C46.2097 16.549 46.5247 17.3891 46.4985 18.2554C46.5247 19.1481 46.2097 20.0144 45.5796 20.6708C44.9758 21.3008 44.0832 21.6421 43.1905 21.5896ZM40.2501 44.3777V24.1625C40.2501 23.9 40.3552 23.7949 40.5914 23.7949H45.7896C46.0259 23.7949 46.1309 23.9262 46.1309 24.1625V44.3777C46.1309 44.6665 46.0259 44.7978 45.7896 44.7978H40.6439C40.3814 44.7978 40.2501 44.6402 40.2501 44.3777Z" fill="#FF9A00"/>
</svg>
