<svg width="61" height="60" viewBox="0 0 61 60" fill="none" xmlns="http://www.w3.org/2000/svg">
<rect x="0.5" width="60" height="60" rx="5" fill="#563D7C"/>
<path d="M25.1961 27.0026V18.8163H32.402C33.0882 18.8163 33.75 18.8735 34.3873 18.9879C35.0245 19.1023 35.5882 19.3065 36.0784 19.6006C36.5686 19.8948 36.9608 20.3033 37.2549 20.8261C37.549 21.349 37.6961 22.0189 37.6961 22.8359C37.6961 24.3065 37.2549 25.3686 36.3725 26.0222C35.4902 26.6758 34.3628 27.0026 32.9902 27.0026H25.1961ZM17.5 12.8359V47.8359H34.4608C36.0294 47.8359 37.5572 47.6399 39.0441 47.2477C40.5311 46.8555 41.8546 46.251 43.0147 45.434C44.1748 44.617 45.098 43.5631 45.7843 42.2722C46.4706 40.9814 46.8137 39.4536 46.8137 37.6889C46.8137 35.4993 46.2827 33.6284 45.2206 32.0761C44.1585 30.5238 42.549 29.4372 40.3922 28.8163C41.9608 28.0647 43.1454 27.1006 43.9461 25.9242C44.7467 24.7477 45.1471 23.2771 45.1471 21.5124C45.1471 19.8784 44.8775 18.5059 44.3382 17.3948C43.799 16.2836 43.0392 15.3931 42.0588 14.7232C41.0784 14.0533 39.902 13.5712 38.5294 13.2771C37.1569 12.983 35.6373 12.8359 33.9706 12.8359H17.5ZM25.1961 41.8555V32.2477H33.5784C35.2451 32.2477 36.585 32.6317 37.598 33.3997C38.6111 34.1676 39.1176 35.4503 39.1176 37.2477C39.1176 38.1627 38.9624 38.9144 38.652 39.5026C38.3415 40.0908 37.9248 40.5565 37.402 40.8997C36.8791 41.2428 36.2745 41.4879 35.5882 41.635C34.902 41.782 34.183 41.8555 33.4314 41.8555H25.1961Z" fill="#F5F5F5"/>
</svg>
