<svg width="61" height="60" viewBox="0 0 61 60" fill="none" xmlns="http://www.w3.org/2000/svg">
<rect x="0.5" width="60" height="60" rx="5" fill="#1E1E1E"/>
<path d="M29.875 32.5C29.875 29.2775 32.4225 26.6675 35.5625 26.6675C38.705 26.6675 41.25 29.275 41.25 32.5C41.25 35.7225 38.705 38.3325 35.5625 38.3325C32.425 38.3325 29.875 35.725 29.875 32.5Z" fill="#1ABCFE"/>
<path d="M18.5 44.1675C18.5 40.945 21.0475 38.3325 24.1875 38.3325H29.875V44.1675C29.875 47.3875 27.3275 50 24.1875 50C21.0475 50 18.5 47.3875 18.5 44.1675Z" fill="#0ACF83"/>
<path d="M29.875 15V26.6675H35.5625C38.705 26.6675 41.25 24.055 41.25 20.8325C41.25 17.6125 38.705 15 35.5625 15H29.875Z" fill="#FF7262"/>
<path d="M18.5 20.8325C18.5 24.055 21.0475 26.6675 24.1875 26.6675H29.875V15H24.1875C21.0475 15 18.5 17.6125 18.5 20.8325Z" fill="#F24E1E"/>
<path d="M18.5 32.5C18.5 35.7225 21.0475 38.3325 24.1875 38.3325H29.875V26.6675H24.1875C21.0475 26.6675 18.5 29.275 18.5 32.5Z" fill="#A259FF"/>
</svg>
