<svg width="11" height="15" viewBox="0 0 11 15" fill="none" xmlns="http://www.w3.org/2000/svg">
<path d="M5.79521 7.50001C5.79521 6.11894 6.887 5.00037 8.23271 5.00037C9.5795 5.00037 10.6702 6.11787 10.6702 7.50001C10.6702 8.88108 9.5795 9.99965 8.23271 9.99965C6.88807 9.99965 5.79521 8.88215 5.79521 7.50001Z" fill="#1ABCFE"/>
<path d="M0.920212 12.5003C0.920212 11.1193 2.012 9.99963 3.35771 9.99963H5.79521V12.5003C5.79521 13.8803 4.70342 15 3.35771 15C2.012 15 0.920212 13.8803 0.920212 12.5003Z" fill="#0ACF83"/>
<path d="M5.79521 0V5.00035H8.23271C9.5795 5.00035 10.6702 3.88071 10.6702 2.49964C10.6702 1.11964 9.5795 0 8.23271 0H5.79521Z" fill="#FF7262"/>
<path d="M0.920212 2.49964C0.920212 3.88071 2.012 5.00035 3.35771 5.00035H5.79521V0H3.35771C2.012 0 0.920212 1.11964 0.920212 2.49964Z" fill="#F24E1E"/>
<path d="M0.920212 7.50001C0.920212 8.88108 2.012 9.99965 3.35771 9.99965H5.79521V5.00037H3.35771C2.012 5.00037 0.920212 6.11787 0.920212 7.50001Z" fill="#A259FF"/>
</svg>
