<svg width="61" height="60" viewBox="0 0 61 60" fill="none" xmlns="http://www.w3.org/2000/svg">
<rect x="0.5" width="60" height="60" rx="5" fill="#F05033"/>
<path d="M50.3385 28.1616L32.3329 10.1574C31.8516 9.67749 31.1875 9.38049 30.4532 9.38049C29.719 9.38049 29.0549 9.67749 28.5736 10.1574L24.8432 13.8946L29.5856 18.637C29.8881 18.5311 30.236 18.4706 30.599 18.4706C32.3439 18.4706 33.7574 19.8841 33.7574 21.629C33.7574 21.9989 33.6941 22.3522 33.5772 22.6822L33.5841 22.6602L38.1519 27.2307C38.4571 27.1221 38.8105 27.0589 39.1776 27.0589C40.9211 27.0589 42.3346 28.4724 42.3346 30.2159C42.3346 31.9594 40.9211 33.3729 39.1776 33.3729C37.4341 33.3729 36.0206 31.9594 36.0206 30.2159C36.0206 29.7855 36.1072 29.3757 36.2626 29.0017L36.2544 29.0224L31.9781 24.7681V35.9799C33.0286 36.5092 33.7367 37.579 33.7367 38.8137C33.7367 40.56 32.3205 41.9762 30.5742 41.9762C28.828 41.9762 27.4117 40.56 27.4117 38.8137C27.4117 37.942 27.7637 37.1541 28.3344 36.5821C28.6245 36.292 28.9696 36.0569 29.3532 35.8919L29.3739 35.8836V24.5619C28.2161 24.0751 27.4186 22.949 27.4186 21.6386C27.4186 21.1986 27.508 20.7806 27.6702 20.3997L27.662 20.4204L23.0021 15.7385L10.6546 28.0777C10.1761 28.5604 9.88187 29.2245 9.88187 29.9587C9.88187 30.693 10.1775 31.3571 10.656 31.8397L28.663 49.8412C29.1429 50.3225 29.807 50.6195 30.5412 50.6195C31.2755 50.6195 31.9382 50.3225 32.4195 49.8412L50.3412 31.9195C50.8225 31.4396 51.1209 30.7741 51.1209 30.0412C51.1209 29.3084 50.8225 28.6429 50.3412 28.163L50.3385 28.1616Z" fill="#F8F8F8"/>
</svg>
