<svg width="13" height="15" viewBox="0 0 13 15" fill="none" xmlns="http://www.w3.org/2000/svg">
<path d="M8.23552 9.93049L8.23495 9.9289C8.17008 9.74458 8.08668 9.60091 7.95625 9.47096L7.28796 8.80513L8.21414 8.62587C8.32524 8.60436 8.42731 8.58568 8.52475 8.56785C8.68928 8.53773 8.84064 8.51002 9.00005 8.47523L9.00074 8.47508C9.35135 8.39906 9.68284 8.28113 9.9956 8.11262L9.99625 8.11227C10.5836 7.79698 11.009 7.33841 11.2443 6.69489L11.2445 6.69434C11.6063 5.70851 11.6907 4.71771 11.4217 3.71442L11.4214 3.71315C11.33 3.36883 11.1638 3.05437 10.9385 2.77171C10.8728 2.69146 10.8044 2.57981 10.78 2.43214C10.7564 2.28892 10.7836 2.16569 10.8087 2.0827L10.8093 2.08082C10.965 1.57324 10.9338 1.06441 10.7793 0.525024C10.644 0.54938 10.5002 0.595724 10.3379 0.660215L10.3363 0.660845C9.97111 0.804474 9.62064 1.00449 9.27195 1.2405C9.19752 1.2916 9.09614 1.34768 8.96664 1.37287C8.83249 1.39895 8.70926 1.38408 8.60292 1.35415L8.73839 0.872851M8.23552 9.93049L5.41575 1.27989C6.48809 1.0537 7.55572 1.06105 8.60362 1.35435L8.73839 0.872851M8.23552 9.93049C8.32548 10.1833 8.36292 10.4582 8.36292 10.7604V10.7655V10.7705V10.7755V10.7806V10.7856V10.7906V10.7957V10.8007V10.8057V10.8108V10.8158V10.8208V10.8258V10.8309V10.8359V10.8409V10.846V10.851V10.856V10.8611V10.8661V10.8711V10.8762V10.8812V10.8862V10.8913V10.8963V10.9013V10.9063V10.9114V10.9164V10.9214V10.9265V10.9315V10.9365V10.9416V10.9466V10.9516V10.9567V10.9617V10.9667V10.9718V10.9768V10.9818V10.9869V10.9919V10.9969V11.002V11.007V11.012V11.017V11.0221V11.0271V11.0321V11.0372V11.0422V11.0472V11.0523V11.0573V11.0623V11.0674V11.0724V11.0774V11.0825V11.0875V11.0925V11.0976V11.1026V11.1076V11.1127V11.1177V11.1227V11.1278V11.1328V11.1378V11.1429V11.1479V11.1529V11.158V11.163V11.168V11.1731V11.1781V11.1831V11.1882V11.1932V11.1982V11.2033V11.2083V11.2133V11.2184V11.2234V11.2284V11.2335V11.2385V11.2435V11.2486V11.2536V11.2586V11.2637V11.2687V11.2737V11.2788V11.2838V11.2889V11.2939V11.2989V11.304V11.309V11.314V11.3191V11.3241V11.3291V11.3342V11.3392V11.3442V11.3493V11.3543V11.3593V11.3644V11.3694V11.3745V11.3795V11.3845V11.3896V11.3946V11.3996V11.4047V11.4097V11.4147V11.4198V11.4248V11.4299V11.4349V11.4399V11.445V11.45V11.455V11.4601V11.4651V11.4702V11.4752V11.4802V11.4853V11.4903V11.4953V11.5004V11.5054V11.5105V11.5155V11.5205V11.5256V11.5306V11.5356V11.5407V11.5457V11.5508V11.5558V11.5608V11.5659V11.5709V11.576V11.581V11.586V11.5911V11.5961V11.6012V11.6062V11.6112V11.6163V11.6213V11.6264V11.6314V11.6364V11.6415V11.6465V11.6516V11.6566V11.6617V11.6667V11.6717V11.6768V11.6818V11.6869V11.6919V11.6969V11.702V11.707V11.7121V11.7171V11.7222V11.7272V11.7322V11.7373V11.7423V11.7474V11.7524V11.7575V11.7625V11.7675V11.7726V11.7776V11.7827V11.7877V11.7928V11.7978V11.8029V11.8079V11.813V11.818V11.823V11.8281V11.8331V11.8382V11.8432V11.8483V11.8533V11.8584V11.8634V11.8685V11.8735V11.8785V11.8836V11.8886V11.8937V11.8987V11.9038V11.9088V11.9139V11.9189V11.924V11.929V11.9341V11.9391V11.9442V11.9492V11.9543V11.9593V11.9644V11.9694V11.9745V11.9795V11.9846V11.9896V11.9947V11.9997V12.0048V12.0098V12.0149V12.0199V12.025V12.03V12.0351V12.0401V12.0452V12.0502V12.0553V12.0603V12.0654V12.0704V12.0755V12.0805V12.0856V12.0907V12.0957V12.1008V12.1058V12.1109V12.1159V12.121V12.126V12.1311V12.1361V12.1412V12.1463V12.1513V12.1564V12.1614V12.1665V12.1715V12.1766V12.1816V12.1867V12.1918V12.1968V12.2019V12.2069V12.212V12.217V12.2221V12.2272V12.2322V12.2373V12.2423V12.2474V12.2525V12.2575V12.2626V12.2676V12.2727V12.2777V12.2828V12.2879V12.2929V12.298V12.3031V12.3081V12.3132V12.3182V12.3233V12.3284V12.3334V12.3385V12.3435V12.3486V12.3537V12.3587V12.3638V12.3689V12.3739V12.379V12.3841V12.3891V12.3942V12.3992V12.4043V12.4094V12.4144V12.4195V12.4246V12.4296V12.4347V12.4398V12.4448V12.4499V12.455V12.46V12.4651V12.4702V12.4752V12.4803V12.4854V12.4904V12.4955V12.5006V12.5057V12.5107V12.5158V12.5209V12.5259V12.531V12.5361V12.5411V12.5462V12.5513V12.5564V12.5614V12.5665V12.5716V12.5766V12.5817V12.5868V12.5919V12.5969V12.602V12.6071V12.6122V12.6172V12.6223V12.6274V12.6325V12.6375V12.6426V12.6477V12.6528V12.6578V12.6629V12.668V12.6731V12.6781V12.6832V12.6883V12.6934V12.6984V12.7035V12.7086V12.7137V12.7188V12.7238V12.7289V12.734V12.7391V12.7442V12.7492V12.7543V12.7594V12.7645V12.7696V12.7746V12.7797V12.7848V12.7899V12.795V12.8001V12.8051V12.8102V12.8153V12.8204V12.8255V12.8306V12.8356V12.8407V12.8458V12.8509V12.856V12.8611V12.8662V12.8712V12.8763V12.8814V12.8865V12.8916V12.8967V12.9018V12.9069V12.9119V12.917V12.9221V12.9272V12.9323V12.9374V12.9425V12.9476V12.9527V12.9578V12.9628V12.9679V12.973V12.9781V12.9832V12.9883V12.9934V12.9985V13.0036V13.0087V13.0138V13.0189V13.024V13.0291V13.0342V13.0393V13.0444V13.0494V13.0545V13.0596V13.0647V13.0698V13.0749V13.08V13.0851V13.0902V13.0953V13.1004V13.1055V13.1106V13.1157V13.1208V13.1259V13.131V13.1361V13.1412V13.1463V13.1514V13.1565V13.1616V13.1667V13.1718V13.1769V13.182V13.1872V13.1923V13.1974V13.2025V13.2076V13.2127V13.2178V13.2229V13.228V13.2331V13.2382V13.2433V13.2484V13.2535V13.2586V13.2638V13.2689V13.274V13.2791V13.2842V13.2893V13.2944V13.2995V13.3046V13.3097V13.3149V13.32V13.3251V13.3297M8.23552 9.93049L8.36292 13.3297M8.73839 0.872851C7.60436 0.555451 6.45444 0.549783 5.31247 0.790667C4.90974 0.875685 4.58384 0.855847 4.23144 0.603627L8.9901 0.827508C8.90796 0.884187 8.83907 0.90119 8.73839 0.872851ZM8.36292 13.3297C8.36246 13.3352 8.36162 13.3441 8.3602 13.3558C8.35667 13.3848 8.34963 13.4306 8.33606 13.4874C8.30857 13.6026 8.25667 13.7529 8.16103 13.9002C7.9882 14.1665 7.62583 14.5 6.76975 14.5C5.91408 14.5 5.56261 14.1672 5.39803 13.906C5.30619 13.7602 5.25748 13.611 5.23229 13.4963C5.21988 13.4398 5.21374 13.3942 5.21077 13.3652C5.2093 13.3508 5.20864 13.3408 5.20837 13.3359C5.20841 13.0792 5.21035 12.8066 5.21231 12.5307L5.21233 12.5285C5.21431 12.2493 5.21632 11.9669 5.21632 11.6985V11.0619L4.59789 11.2127C4.27813 11.2907 3.97331 11.3222 3.67838 11.2967L3.67777 11.2966C3.34813 11.2685 3.09165 11.1785 2.89135 11.0351C2.73241 10.9213 2.58873 10.7596 2.47005 10.5281C2.68333 10.714 2.92281 10.8565 3.18745 10.9465C3.72485 11.1293 4.30138 11.0739 4.86588 10.8277L4.86589 10.8277L4.86833 10.8266C4.94761 10.7915 5.06153 10.7283 5.153 10.6064C5.245 10.4838 5.27633 10.3528 5.28751 10.2512L4.79051 10.1965M8.36292 13.3297L4.79051 10.1965M4.79051 10.1965L5.28736 10.2525C5.30692 10.0789 5.35724 9.9166 5.43751 9.76738L5.43766 9.7671C5.47888 9.69035 5.53799 9.61918 5.65831 9.47823L6.26512 8.76739M4.79051 10.1965L6.26512 8.76739M2.80852 0.53244C2.66149 1.07032 2.6576 1.60935 2.79521 2.15295L2.79586 2.15553L2.79585 2.15553C2.8173 2.24221 2.83577 2.36169 2.80894 2.49735C2.7817 2.63507 2.71754 2.74156 2.65218 2.82172C2.22993 3.35606 2.02758 3.98128 2.01823 4.705L2.80852 0.53244ZM2.80852 0.53244C3.21499 0.606561 3.5967 0.770927 3.94315 1.01216C4.17684 1.17886 4.41934 1.27991 4.68034 1.31829C4.93601 1.35589 5.18212 1.3292 5.41567 1.2799L2.80852 0.53244ZM6.26512 8.76739L5.33704 8.65709M6.26512 8.76739L5.33704 8.65709M5.33704 8.65709C4.9543 8.61161 4.61464 8.54573 4.28394 8.44764L5.33704 8.65709ZM2.23958 6.47475C2.06668 5.91742 2.0107 5.32741 2.01823 4.70511L4.28357 8.44753C3.27149 8.14633 2.57118 7.54362 2.23958 6.47475Z" stroke="#2A5E73"/>
</svg>
