<svg width="61" height="60" viewBox="0 0 61 60" fill="none" xmlns="http://www.w3.org/2000/svg">
<rect x="0.5" width="60" height="60" rx="5" fill="#F7DF1E"/>
<path d="M16.5002 48.3892L20.7855 45.7957C21.6124 47.2615 22.3645 48.5018 24.1685 48.5018C25.8977 48.5018 26.9882 47.8254 26.9882 45.1943V27.301H32.2507V45.2687C32.2507 50.7193 29.0556 53.2003 24.394 53.2003C20.1842 53.2003 17.7405 51.0201 16.5 48.3887M35.1091 47.8252L39.3939 45.3444C40.522 47.1865 41.9881 48.5397 44.5816 48.5397C46.7623 48.5397 48.1527 47.4494 48.1527 45.9457C48.1527 44.1415 46.7243 43.5023 44.3184 42.4501L43.0031 41.8857C39.2063 40.2698 36.6878 38.2398 36.6878 33.9545C36.6878 30.0074 39.6949 27 44.3939 27C47.7395 27 50.1453 28.1655 51.8743 31.2103L47.7767 33.8418C46.8743 32.2255 45.8974 31.5865 44.3937 31.5865C42.8524 31.5865 41.875 32.5639 41.875 33.8418C41.875 35.4206 42.8524 36.06 45.1077 37.0373L46.4232 37.6011C50.8967 39.5184 53.4152 41.4729 53.4152 45.8707C53.4152 50.6075 49.6938 53.201 44.6943 53.201C39.8076 53.201 36.6499 50.8704 35.1088 47.8254" fill="black"/>
</svg>
