<svg width="61" height="60" viewBox="0 0 61 60" fill="none" xmlns="http://www.w3.org/2000/svg">
<rect x="1" y="0.5" width="59" height="59" rx="4.5" fill="#F5F5F5" stroke="black"/>
<g clip-path="url(#clip0_208_143)">
<mask id="mask0_208_143" style="mask-type:alpha" maskUnits="userSpaceOnUse" x="20" y="12" width="21" height="20">
<path d="M30.5 32C36.0228 32 40.5 27.5228 40.5 22C40.5 16.4772 36.0228 12 30.5 12C24.9772 12 20.5 16.4772 20.5 22C20.5 27.5228 24.9772 32 30.5 32Z" fill="black"/>
</mask>
<g mask="url(#mask0_208_143)">
<path d="M30.5 32C36.0228 32 40.5 27.5228 40.5 22C40.5 16.4772 36.0228 12 30.5 12C24.9772 12 20.5 16.4772 20.5 22C20.5 27.5228 24.9772 32 30.5 32Z" fill="black"/>
<path d="M37.112 29.5022L28.1824 18H26.5V25.9967H27.846V19.7093L36.0554 30.3161C36.4259 30.0682 36.7788 29.7961 37.112 29.5022Z" fill="url(#paint0_linear_208_143)"/>
<path d="M34.6111 18H33.2778V26H34.6111V18Z" fill="url(#paint1_linear_208_143)"/>
</g>
</g>
<g clip-path="url(#clip1_208_143)">
<path d="M37.7498 39.4863H45.4139V40.9329H42.3736V48.5432H40.8534V40.9329H37.7498V39.4863Z" fill="black"/>
<path d="M25.1454 39.4863V40.9329H19.0022V43.26H23.9426V44.7066H19.0022V47.0966H25.1454V48.5432H17.482V40.9329H17.4814V39.4863H25.1454Z" fill="black"/>
<path d="M28.9723 39.4901H26.9829L34.1084 48.547H36.1036L32.5404 44.0217L36.0979 39.497L34.1084 39.5002L31.5444 42.7567L28.9723 39.4901Z" fill="black"/>
<path d="M31.0137 45.9595L30.0175 44.6927L26.9772 48.5539H28.9723L31.0137 45.9595Z" fill="black"/>
<path fill-rule="evenodd" clip-rule="evenodd" d="M17.5353 48.5432L10.4002 39.4825H8.5V48.5394H10.0201V41.4184L15.6256 48.5432H17.5353Z" fill="black"/>
<path d="M45.7556 48.4879C45.6443 48.4879 45.5496 48.4485 45.4703 48.3696C45.391 48.2907 45.3518 48.1952 45.3528 48.0821C45.3518 47.9721 45.391 47.8776 45.4703 47.7987C45.5496 47.7199 45.6443 47.6804 45.7556 47.6804C45.8627 47.6804 45.9564 47.7199 46.0357 47.7987C46.1161 47.8776 46.1562 47.9721 46.1573 48.0821C46.1562 48.1568 46.1376 48.2253 46.1006 48.2866C46.0625 48.3488 46.0141 48.3976 45.9533 48.4329C45.8935 48.4692 45.8276 48.4879 45.7556 48.4879Z" fill="black"/>
<path d="M48.3502 44.6725H49.0238V47.3265C49.0228 47.5704 48.9712 47.779 48.8703 47.9544C48.7684 48.1298 48.6272 48.2637 48.446 48.3581C48.2657 48.4515 48.0546 48.4993 47.8146 48.4993C47.5951 48.4993 47.3985 48.4588 47.2234 48.3799C47.0483 48.3011 46.9092 48.1827 46.8073 48.027C46.7042 47.8714 46.6537 47.6773 46.6537 47.4448H47.3284C47.3295 47.5465 47.3521 47.6347 47.3953 47.7084C47.4386 47.7821 47.4983 47.8381 47.5746 47.8776C47.6517 47.917 47.7404 47.9367 47.8403 47.9367C47.9485 47.9367 48.0412 47.9139 48.1163 47.8672C48.1915 47.8215 48.2492 47.753 48.2894 47.6617C48.3285 47.5714 48.3492 47.4593 48.3502 47.3265V44.6725Z" fill="black"/>
<path d="M51.7954 45.7104C51.779 45.5495 51.7069 45.424 51.5813 45.3347C51.4545 45.2444 51.2908 45.1998 51.0899 45.1998C50.9488 45.1998 50.8273 45.2216 50.7264 45.2641C50.6254 45.3077 50.5471 45.3658 50.4935 45.4395C50.44 45.5132 50.4132 45.5973 50.4111 45.6917C50.4111 45.7706 50.4297 45.8391 50.4657 45.8962C50.5018 45.9543 50.5502 46.0031 50.613 46.0426C50.6748 46.083 50.7438 46.1162 50.8191 46.1432C50.8952 46.1702 50.9715 46.1931 51.0477 46.2117L51.3989 46.3C51.54 46.3332 51.6771 46.3778 51.8078 46.4349C51.9386 46.4909 52.0571 46.5626 52.1611 46.6487C52.2651 46.7349 52.3476 46.8386 52.4083 46.9601C52.4691 47.0815 52.5 47.2237 52.5 47.3877C52.5 47.6088 52.4444 47.8029 52.332 47.971C52.2198 48.1381 52.0581 48.2689 51.8459 48.3633C51.6347 48.4568 51.3793 48.5045 51.0786 48.5045C50.7881 48.5045 50.5347 48.4588 50.3216 48.3675C50.1074 48.2772 49.9404 48.1443 49.8199 47.97C49.6994 47.7956 49.6345 47.5828 49.6253 47.3327H50.2927C50.302 47.4635 50.3432 47.5725 50.4132 47.6607C50.4843 47.7479 50.577 47.8122 50.6903 47.8558C50.8047 47.8984 50.9323 47.9202 51.0735 47.9202C51.2208 47.9202 51.3505 47.8973 51.4628 47.8527C51.574 47.8081 51.6615 47.7458 51.7244 47.6648C51.7883 47.5849 51.8202 47.4905 51.8212 47.3825C51.8202 47.2839 51.7913 47.2019 51.7357 47.1376C51.6791 47.0732 51.6008 47.0192 51.5008 46.9756C51.4 46.9321 51.2825 46.8926 51.1486 46.8584L50.7222 46.7483C50.4142 46.6684 50.1701 46.547 49.9919 46.384C49.8128 46.2211 49.7241 46.0052 49.7241 45.7343C49.7241 45.5122 49.7838 45.3171 49.9044 45.15C50.0238 44.9829 50.1877 44.8531 50.3947 44.7607C50.6028 44.6673 50.8376 44.6216 51.0991 44.6216C51.3649 44.6216 51.5977 44.6673 51.7986 44.7607C51.9994 44.8531 52.157 44.9818 52.2713 45.1458C52.3856 45.3098 52.4454 45.4977 52.4485 45.7104H51.7954Z" fill="black"/>
</g>
<defs>
<linearGradient id="paint0_linear_208_143" x1="32.6111" y1="24.9444" x2="36.5556" y2="29.8333" gradientUnits="userSpaceOnUse">
<stop stop-color="white"/>
<stop offset="1" stop-color="white" stop-opacity="0"/>
</linearGradient>
<linearGradient id="paint1_linear_208_143" x1="33.9444" y1="18" x2="33.9221" y2="23.875" gradientUnits="userSpaceOnUse">
<stop stop-color="white"/>
<stop offset="1" stop-color="white" stop-opacity="0"/>
</linearGradient>
<clipPath id="clip0_208_143">
<rect width="20" height="20" fill="white" transform="translate(20.5 12)"/>
</clipPath>
<clipPath id="clip1_208_143">
<rect width="44" height="9.02564" fill="white" transform="translate(8.5 39.4807)"/>
</clipPath>
</defs>
</svg>
