<svg width="61" height="60" viewBox="0 0 61 60" fill="none" xmlns="http://www.w3.org/2000/svg">
<rect x="0.5" width="60" height="60" rx="5" fill="#001E36"/>
<path d="M11.5 43.1432V16.4411C11.5 16.2595 11.5778 16.1557 11.7595 16.1557C12.2006 16.1557 12.6158 16.1557 13.2127 16.1297C13.8355 16.1038 14.4842 16.1038 15.1848 16.0778C15.8855 16.0519 16.638 16.0519 17.4424 16.0259C18.2469 16 19.0254 16 19.8038 16C21.9317 16 23.6963 16.2595 25.1494 16.8044C26.4469 17.2456 27.6406 17.9722 28.6267 18.9323C29.457 19.7627 30.1058 20.7747 30.521 21.8905C30.9102 22.9804 31.1178 24.0962 31.1178 25.264C31.1178 27.4956 30.5988 29.338 29.5608 30.7912C28.5229 32.2444 27.0697 33.3343 25.383 33.957C23.6184 34.6058 21.6722 34.8393 19.5443 34.8393C18.9216 34.8393 18.5064 34.8393 18.2469 34.8134C17.9874 34.7874 17.6241 34.7874 17.131 34.7874V43.1172C17.157 43.2989 17.0272 43.4546 16.8456 43.4805H11.8114C11.6038 43.4805 11.5 43.3767 11.5 43.1432ZM17.157 21.1639V29.883C17.5203 29.9089 17.8576 29.9349 18.169 29.9349H19.5443C20.5564 29.9349 21.5684 29.7792 22.5285 29.4678C23.3589 29.2342 24.0855 28.7412 24.6564 28.0925C25.2013 27.4437 25.4608 26.5614 25.4608 25.4197C25.4868 24.6152 25.2792 23.8108 24.864 23.1102C24.4228 22.4355 23.8001 21.9165 23.0475 21.631C22.0874 21.2418 21.0494 21.0861 19.9855 21.112C19.3108 21.112 18.714 21.1121 18.2209 21.138C17.7019 21.1121 17.3386 21.138 17.157 21.1639ZM47.3103 28.3001C46.5318 27.8849 45.7014 27.5994 44.8191 27.4178C43.859 27.2102 42.8989 27.0804 41.9128 27.0804C41.3938 27.0545 40.8489 27.1323 40.3558 27.2621C40.0185 27.3399 39.733 27.5216 39.5514 27.7811C39.4217 27.9887 39.3438 28.2482 39.3438 28.4817C39.3438 28.7153 39.4476 28.9488 39.6033 29.1564C39.8368 29.4418 40.1482 29.6754 40.4856 29.857C41.0824 30.1684 41.7052 30.4539 42.328 30.7134C43.7293 31.1805 45.0786 31.8292 46.3242 32.6077C47.1806 33.1526 47.8812 33.8792 48.3742 34.7615C48.7894 35.5919 48.997 36.5001 48.9711 37.4343C48.997 38.6539 48.6337 39.8735 47.959 40.8856C47.2325 41.9235 46.2204 42.728 45.0527 43.1951C43.7812 43.74 42.2242 44.0255 40.3558 44.0255C39.1622 44.0255 37.9944 43.9217 36.8267 43.6881C35.9185 43.5324 35.0102 43.247 34.1799 42.8577C33.9982 42.7539 33.8685 42.5723 33.8944 42.3647V37.8495C33.8944 37.7716 33.9204 37.6678 33.9982 37.6159C34.0761 37.564 34.1539 37.59 34.2318 37.6419C35.2438 38.2387 36.3077 38.6539 37.4495 38.9134C38.4356 39.1729 39.4736 39.3026 40.5115 39.3026C41.4976 39.3026 42.1983 39.1729 42.6653 38.9394C43.0805 38.7577 43.366 38.3166 43.366 37.8495C43.366 37.4862 43.1584 37.1488 42.7432 36.8115C42.328 36.4741 41.4717 36.0849 40.2001 35.5919C38.8767 35.1248 37.6571 34.502 36.5153 33.7235C35.7109 33.1526 35.0362 32.4001 34.5431 31.5178C34.128 30.6874 33.9204 29.7792 33.9463 28.8709C33.9463 27.7551 34.2577 26.6912 34.8286 25.7311C35.4773 24.6931 36.4375 23.8627 37.5533 23.3437C38.7729 22.7209 40.3039 22.4355 42.1464 22.4355C43.2103 22.4355 44.3002 22.5133 45.3641 22.669C46.1426 22.7728 46.8951 22.9804 47.5957 23.2659C47.6995 23.2918 47.8033 23.3956 47.8552 23.4994C47.8812 23.6032 47.9071 23.707 47.9071 23.8108V28.0406C47.9071 28.1444 47.8552 28.2482 47.7774 28.3001C47.5438 28.352 47.4141 28.352 47.3103 28.3001Z" fill="#31A8FF"/>
</svg>
