<svg width="61" height="60" viewBox="0 0 61 60" fill="none" xmlns="http://www.w3.org/2000/svg">
<rect x="0.5" width="60" height="60" rx="5" fill="#222222"/>
<path d="M30.1078 34.1784C32.4374 34.1784 34.326 32.2899 34.326 29.9602C34.326 27.6306 32.4374 25.742 30.1078 25.742C27.7781 25.742 25.8895 27.6306 25.8895 29.9602C25.8895 32.2899 27.7781 34.1784 30.1078 34.1784Z" fill="#00D8FF"/>
<path d="M30.1078 21.3843C35.7702 21.3843 41.0311 22.197 44.997 23.5617C49.7756 25.2066 52.7141 27.7005 52.7141 29.9587C52.7141 32.3118 49.6 34.9618 44.4687 36.661C40.5892 37.9463 35.483 38.6182 30.1078 38.6182C24.5959 38.6182 19.3782 37.9881 15.4541 36.6471C10.4901 34.9506 7.5 32.2672 7.5 29.9587C7.5 27.7186 10.3061 25.2442 15.0178 23.6021C18.999 22.2151 24.3896 21.3843 30.1078 21.3843Z" stroke="#00D8FF" stroke-width="1.5" stroke-miterlimit="10"/>
<path d="M22.6429 25.6974C25.4713 20.7919 28.8044 16.6406 31.9687 13.8875C35.7813 10.5698 39.4099 9.27056 41.3656 10.3983C43.4036 11.5734 44.1438 15.5951 43.0524 20.8909C42.2271 24.8944 40.2588 29.6521 37.5726 34.3095C34.8194 39.0839 31.6662 43.2895 28.5451 46.019C24.5959 49.4719 20.7764 50.7209 18.7774 49.5681C16.8369 48.4487 16.0953 44.7825 17.0251 39.8798C17.8113 35.7341 19.7852 30.6502 22.6429 25.6974Z" stroke="#00D8FF" stroke-width="1.5" stroke-miterlimit="10"/>
<path d="M22.6499 34.3192C19.8131 29.4179 17.8811 24.4581 17.0753 20.3416C16.1051 15.3818 16.791 11.5887 18.7453 10.4582C20.782 9.2789 24.635 10.6464 28.6775 14.2359C31.7346 16.95 34.8724 21.0316 37.5656 25.6848C40.3271 30.455 42.3972 35.2866 43.2015 39.3529C44.2205 44.4995 43.3953 48.432 41.3977 49.5876C39.4587 50.7097 35.9124 49.5221 32.1291 46.2671C28.934 43.5167 25.5146 39.2678 22.6499 34.3192Z" stroke="#00D8FF" stroke-width="1.5" stroke-miterlimit="10"/>
</svg>
