<svg width="61" height="60" viewBox="0 0 61 60" fill="none" xmlns="http://www.w3.org/2000/svg">
<rect x="0.5" width="60" height="60" rx="5" fill="#44A8B3"/>
<path d="M18 25C19.6667 18.3333 23.8333 15 30.5 15C40.5 15 41.75 22.5 46.75 23.75C50.0833 24.5833 53 23.3333 55.5 20C53.8333 26.6667 49.6667 30 43 30C33 30 31.75 22.5 26.75 21.25C23.4167 20.4167 20.5 21.6667 18 25ZM5.5 40C7.16667 33.3333 11.3333 30 18 30C28 30 29.25 37.5 34.25 38.75C37.5833 39.5833 40.5 38.3333 43 35C41.3333 41.6667 37.1667 45 30.5 45C20.5 45 19.25 37.5 14.25 36.25C10.9167 35.4167 8 36.6667 5.5 40Z" fill="#F8F8F8"/>
</svg>
