<svg width="61" height="60" viewBox="0 0 61 60" fill="none" xmlns="http://www.w3.org/2000/svg">
<rect x="0.5" width="60" height="60" rx="5" fill="#470137"/>
<path d="M31.7131 20.2265L25.4082 30.8999L32.1536 42.2335C32.2938 42.4905 32.1536 42.5474 31.9504 42.5474H27.137C26.798 42.5474 26.5606 42.5351 26.4251 42.3032C25.9727 41.3993 25.5208 40.5011 25.0691 39.6087C24.6169 38.7167 24.1367 37.807 23.6287 36.8795C23.1201 35.9529 22.6173 35.0143 22.1202 34.0636C21.6679 34.9908 21.165 35.9179 20.6795 36.8449C20.1933 37.7721 19.7131 38.6934 19.2389 39.6087C18.7644 40.5246 18.2785 41.4343 17.7814 42.3378C17.6908 42.5465 17.5324 42.5679 17.3067 42.5679H12.6629C12.4804 42.5679 12.4584 42.4308 12.5612 42.2684L19.1033 31.2475L12.7306 20.1917C12.6149 20.034 12.7145 19.866 12.9002 19.8788H17.6796C17.8865 19.8672 18.0694 19.9452 18.1881 20.1222C18.5948 21.0495 19.0468 21.9767 19.5439 22.9035C20.0407 23.8308 20.5436 24.7464 21.0524 25.65C21.5609 26.554 22.0637 27.4695 22.493 28.3967C22.9447 27.4465 23.4024 26.5195 23.8658 25.6154C24.3289 24.7114 24.8033 23.8017 25.2895 22.8862C25.7753 21.9709 26.2441 21.0612 26.6962 20.1571C26.7563 19.9587 26.8999 19.8582 27.1029 19.8788H31.5434C31.7131 19.8788 31.7831 20.1103 31.7131 20.2265Z" fill="#FF61F6"/>
<path d="M41.4411 42.9987C38.4517 43.0455 35.3205 41.8145 33.7465 39.0875C32.9781 37.7783 32.5939 36.1386 32.5941 34.1681C32.5813 32.5724 32.9788 31.0015 33.7465 29.6137C35.7275 26.0727 39.7182 24.7459 43.5089 25.0942V18.2452C43.5089 18.0833 43.5767 18.0018 43.7123 18.0018H47.9833C48.1 17.9847 48.2033 18.0906 48.1867 18.2104V38.7573C48.1867 39.6049 48.2708 40.4497 48.3224 41.2951C48.3307 41.4395 48.2471 41.5824 48.1188 41.6429C46.0087 42.5456 43.7253 42.9883 41.4411 42.9987ZM43.5089 38.6876V29.1965C40.4128 28.3364 37.407 30.6945 37.4074 33.9595C37.334 37.335 40.2437 39.6672 43.5089 38.6876Z" fill="#FF61F6"/>
</svg>
